<svg id="Calque_1" data-name="Calque 1" xmlns="http://www.w3.org/2000/svg" viewBox="0 0 729.99 687.79"><defs><style>.cls-1{fill:#fff;stroke-width:4px;}.cls-1,.cls-2{stroke:#a96f25;stroke-miterlimit:10;}.cls-2{stroke-width:3px;}.cls-3{fill:#a96f25;}.cls-4{fill:none;}.cls-5{fill:#e4a34a;}</style></defs><path class="cls-1" d="M813,510.16c0-222-180-402.06-402.06-402.06a400.18,400.18,0,0,0-243.37,82.06,5.62,5.62,0,0,1,0,5.38,400.06,400.06,0,0,1,228-70.92c222.05,0,402.06,180,402.06,402.06a400.55,400.55,0,0,1-100.4,265.81A400.77,400.77,0,0,0,813,510.16Z" transform="translate(-85 -106.1)"/><path class="cls-2" d="M262.17,360.11a51.52,51.52,0,0,0-16-12c-6.49-3.15-12.28-7.76-18.31-11.83-8.15-5.52-16.89-8.52-26.95-8.31-16.87.35-33.76,0-50.64.07-10.25,0-19.22-2.78-24.32-12.35-9.07-17-17-34.07-13.77-54.64,1.63-10.39,4.45-18.5,12.77-25.43C140.4,222.73,155,208.86,170,195.39l-2.67-3.58c-4.12,2.41-8.87,4.17-12.22,7.38-9,8.6-17,18.14-26,26.7S110.61,242.48,101,250.3c-6.76,5.49-12.35,11.24-13.47,20.46-2.3,18.9-1.22,36.92,9.26,53.79,8.16,13.17,17.46,22.78,34.61,21.1,8.94-.88,18.07.26,27.05-.39,21.21-1.55,39.72,2.8,58.17,15.2,9.7,6.53,18.3,13.23,25.27,21.5a60.22,60.22,0,0,1,10.68-14.46A49.44,49.44,0,0,1,262.17,360.11Z" transform="translate(-85 -106.1)"/><path d="M292.57,536.2c-13.43-14.4-28.14-27.52-30.66-49.07-.79-6.79-3-13.4-5-20a34.49,34.49,0,0,1-4-2.48,42.63,42.63,0,0,1-11.78-13.3c-.39-.67-.77-1.36-1.13-2.07-1.44,3.13-2.82,6.27-4.1,9.46a36.54,36.54,0,0,0-2.5,18.41c2.25,14.63,5.75,29.09,9.26,43.5a29.2,29.2,0,0,0,5.77,11.52c8.18,9.75,16.79,19.15,25.48,28.47,8.39,9,28.42,14,37.91,7.58,11.68-7.93,21.84-18.09,32.66-27.29-5.05,1.4-8.84,4.75-13.23,6.07Q308.82,553.7,292.57,536.2Z" transform="translate(-85 -106.1)"/><path d="M274.37,380.8c-.58-1.54-1.2-3-1.87-4.52-.67.79-1.32,1.62-1.95,2.5a51.33,51.33,0,0,0-6.71,13.55,73.62,73.62,0,0,0-3.43,16.15,57.32,57.32,0,0,0,.66,16.51c.3,1.58.66,3.09,1.07,4.57,4.75-8.94,9.6-17.82,13.24-27.18C277.8,396.17,276.82,387.32,274.37,380.8Z" transform="translate(-85 -106.1)"/><path d="M400.81,312a14.16,14.16,0,0,1-2.79-3.32c-9.38-17.5-23.28-32.54-28.2-52.5a97.73,97.73,0,0,0-6.14-16.29c-1.39-3.12-3-7.35-5.61-8.51C343.5,225,329.64,215,312.19,220.15c-10.51,3.1-21.39,5.16-31.26-.82-7.51-4.54-13.7-11.19-20.88-16.35-5.08-3.65-10.84-6.37-16.29-9.51l-.15,1.71c5.37,6.09,10.78,12.15,16.1,18.29,1.89,2.18,3.37,4.73,5.39,6.77,13.1,13.22,29,14.45,46.59,12.35,18-2.15,31.25,9.9,45,19.21,2.37,1.61,3.11,6.1,3.94,9.42,2.94,11.84,5,23.93,8.5,35.59,6,19.92,14.42,38.72,28.62,54.42C414.38,338.39,415.16,325.92,400.81,312Z" transform="translate(-85 -106.1)"/><path class="cls-3" d="M280.24,369.73a19.92,19.92,0,0,1,12.33-2.55,14.76,14.76,0,0,1,5.14,1.79,39.4,39.4,0,0,1,5.88,3.8,45.35,45.35,0,0,1,5.18,4.68,15.14,15.14,0,0,1,3.11,4.44l-6.8,67.91a61.16,61.16,0,0,1-6.43,2.49,56.53,56.53,0,0,1-6.21,1.52,23,23,0,0,1-6.51.34,21.64,21.64,0,0,1-11.44-4.65,33.11,33.11,0,0,1-8.5-10.29,46.83,46.83,0,0,1-3.85-9.65c-2.46,4.63-4.89,9.28-7.11,14a21.36,21.36,0,0,0-1.11,12.69c.78,3.65,1.85,7.24,3,10.83a32,32,0,0,0,11.92,3.56,35.84,35.84,0,0,0,6.63.05,48.1,48.1,0,0,0,6.41-1,52,52,0,0,0,6-1.75q2.87-1,5.37-2.19a67.29,67.29,0,0,0,10.93-6.24l-1.18,11.84L339.25,475l.79-7.84-8.69-1.36a4.16,4.16,0,0,1-2.53-1.49,3.75,3.75,0,0,1-.75-2.8l10.26-102.6-4.08-.41L313.36,367a59.69,59.69,0,0,0-11.71-8.59,47.23,47.23,0,0,0-6.38-3,22.69,22.69,0,0,0-5.75-1.44,43.7,43.7,0,0,0-19.83,2.51,46.31,46.31,0,0,0-7.52,3.59,61.07,61.07,0,0,1,10.33,16.17A30.09,30.09,0,0,1,280.24,369.73Z" transform="translate(-85 -106.1)"/><path class="cls-3" d="M252.25,398.13A72.31,72.31,0,0,0,241.87,382c-.69,1.29-1.36,2.61-2,4a77.05,77.05,0,0,0-6.49,24.95,73.29,73.29,0,0,0,.94,21.85,61.72,61.72,0,0,0,5.67,16.5c4-8.75,8.49-17.33,12.71-26C256.82,414.76,256.26,406.7,252.25,398.13Z" transform="translate(-85 -106.1)"/><path d="M344.62,405.82v-7h44v7Z" transform="translate(-85 -106.1)"/><path class="cls-4" d="M442.33,405.74h-12v56.93a4.09,4.09,0,0,0,1,2.75,3.39,3.39,0,0,0,2.67,1.19l9.48.46v0l7.39-.49a4.14,4.14,0,0,0,2.62-1.28,3.66,3.66,0,0,0,1.07-2.6V405.79H442.33Z" transform="translate(-85 -106.1)"/><path d="M509.56,398.69l.78-.27v-5.1a9.86,9.86,0,0,0-1.93-1.11,23.2,23.2,0,0,0-2.62-1,20.5,20.5,0,0,0-3-.7,18.76,18.76,0,0,0-3-.25,12,12,0,0,0-6.2,2.06,45.2,45.2,0,0,0-6.44,4.91,73,73,0,0,0-5.78,5.91q-2.67,3-4.22,5V390.27h-8.78l-19.9,6.57V395h-18.3v-9.77c0-3.82.13-7.08.37-9.76a54.88,54.88,0,0,1,1-6.93,23,23,0,0,1,1.68-5,36.62,36.62,0,0,1,2.26-4l16.65,15.59a21.23,21.23,0,0,0,3.94-1.73,15.45,15.45,0,0,0,3.32-2.5,12.47,12.47,0,0,0,2.3-3.16,8.2,8.2,0,0,0,.86-3.69A11.59,11.59,0,0,0,461,358a13,13,0,0,0-4-4.18,18.08,18.08,0,0,0-5.25-2.38,20,20,0,0,0-5.29-.78,33.79,33.79,0,0,0-9.8,1.39A35.18,35.18,0,0,0,428,356a39.41,39.41,0,0,0-7.34,6,41.92,41.92,0,0,0-5.78,7.54A46.7,46.7,0,0,0,409.43,381a41.86,41.86,0,0,0-1.84,12.55L396.84,399v6.72h11v56.93a3.64,3.64,0,0,1-1.11,2.67,4.26,4.26,0,0,1-2.66,1.27l-8.53.49V475h48.72v0h47.3V467l-10.74-.49a3.34,3.34,0,0,1-2.67-1.2,4,4,0,0,1-1-2.68V415.28a17.11,17.11,0,0,1,3-1.49,24.28,24.28,0,0,1,3.45-1.07,18.78,18.78,0,0,1,4.43-.5,11,11,0,0,1,4.26.75,11.64,11.64,0,0,1,3.08,1.81A13.82,13.82,0,0,1,497.5,417q.86,1.15,1.44,2h11.4V405.64h-.78Zm-55,64a3.66,3.66,0,0,1-1.07,2.6,4.14,4.14,0,0,1-2.62,1.28l-7.39.49v0l-9.48-.46a3.39,3.39,0,0,1-2.67-1.19,4.09,4.09,0,0,1-1-2.75V405.74h12v.05h12.23Z" transform="translate(-85 -106.1)"/><path class="cls-5" d="M546.47,466.54a4.6,4.6,0,0,1-2.67-1.29,3.55,3.55,0,0,1-1.19-2.68V390.25h-8.53l-23.74,8.17v7.22h10v56.93a3.66,3.66,0,0,1-1.11,2.68,4.18,4.18,0,0,1-2.58,1.29l-7.71.49v8h45.69v-8Z" transform="translate(-85 -106.1)"/><polygon points="424.55 292.58 424.55 299.54 425.33 299.54 425.33 292.32 424.55 292.58"/><path class="cls-3" d="M566.88,361a9.5,9.5,0,0,1-.28,2.17,17.65,17.65,0,0,1-.71,2.35,12.71,12.71,0,0,1-1,2.16,7.86,7.86,0,0,1-1.25,1.59L543,386.65h-8.87l17.37-29.79c.74-1.21,1.42-2.22,2-3a10.88,10.88,0,0,1,1.79-1.92,5.32,5.32,0,0,1,1.9-1,7.92,7.92,0,0,1,2.29-.29,5.91,5.91,0,0,1,3.44,1,7.93,7.93,0,0,1,2.3,2.45,10.33,10.33,0,0,1,1.27,3.36A18.34,18.34,0,0,1,566.88,361Z" transform="translate(-85 -106.1)"/><path class="cls-5" d="M568.31,475V467.1l8.28-.49a4.13,4.13,0,0,0,2.67-1.23,3.76,3.76,0,0,0,1-2.71V366h-12v-6.89l25.76-8.45h8.53V462.67a3.75,3.75,0,0,0,1,2.71,4.15,4.15,0,0,0,2.67,1.23l8.45.49V475Z" transform="translate(-85 -106.1)"/><path class="cls-4" d="M672.3,419.2a51.37,51.37,0,0,0-1.85-8.08,20.76,20.76,0,0,0-3.32-6.44,14.37,14.37,0,0,0-5.42-4.27,19.29,19.29,0,0,0-8.12-1.52,15.39,15.39,0,0,0-9.39,2.71,18.44,18.44,0,0,0-5.74,7.26,36.22,36.22,0,0,0-2.87,10.46,94,94,0,0,0-.78,12.3A41.1,41.1,0,0,0,636.12,442a28.48,28.48,0,0,0,3.94,8.86,20.24,20.24,0,0,0,6.52,6.15,17.44,17.44,0,0,0,9.06,2.3,14.9,14.9,0,0,0,6.73-1.39,14.37,14.37,0,0,0,4.88-4.06,28.25,28.25,0,0,0,3.73-6.57,80,80,0,0,0,3.12-9c-.33-3.33-.6-6.63-.82-9.88S672.73,422.12,672.3,419.2Z" transform="translate(-85 -106.1)"/><path d="M703.14,452.08a15.52,15.52,0,0,1-1,3.62,11.17,11.17,0,0,1-1.44,2.5,2.71,2.71,0,0,1-2.26,1.12A2.86,2.86,0,0,1,696,458a11.6,11.6,0,0,1-1.51-3.74c-.41-1.64-.8-3.65-1.15-6s-.84-5.08-1.44-8.09a60.26,60.26,0,0,0,3.73-10.38q1.44-5.46,2.83-10.7,1.56-5.47,3-10.46c.38-1.45.78-2.92,1.19-4.43s.78-3,1.1-4.38.63-2.76.91-4,.46-2.37.57-3.33h-17.8L683,411.37a32.72,32.72,0,0,0-11.85-15.45q-7.92-5.48-20.63-5.48-10.75,0-18.38,3.87a36.48,36.48,0,0,0-12.55,10.18,41.78,41.78,0,0,0-7.22,14.36,59.55,59.55,0,0,0-2.29,16.41,56.59,56.59,0,0,0,1.8,14.05,39.72,39.72,0,0,0,5.7,12.71,31.19,31.19,0,0,0,9.93,9.25A27.82,27.82,0,0,0,642,474.85a49,49,0,0,0,21-4.26,47.18,47.18,0,0,0,15.79-12.07,43.78,43.78,0,0,0,2,7.16,16,16,0,0,0,3.08,5.11,11.52,11.52,0,0,0,4.59,3.06,18.9,18.9,0,0,0,6.56,1,7.31,7.31,0,0,0,3.61-1,13.32,13.32,0,0,0,3.24-2.58,25.49,25.49,0,0,0,2.83-3.62,38.19,38.19,0,0,0,2.38-4.18,67,67,0,0,0,4.43-11.43ZM671,447.86a27.63,27.63,0,0,1-3.73,6.44,14.23,14.23,0,0,1-4.88,4,15.18,15.18,0,0,1-6.73,1.37,17.71,17.71,0,0,1-9.06-2.26,20.08,20.08,0,0,1-6.52-6,27.73,27.73,0,0,1-3.94-8.69,39.6,39.6,0,0,1-1.31-10.22,90.34,90.34,0,0,1,.78-12.07,35,35,0,0,1,2.87-10.26A18.05,18.05,0,0,1,644.2,403a15.58,15.58,0,0,1,9.39-2.66,19.63,19.63,0,0,1,8.12,1.49,14.35,14.35,0,0,1,5.42,4.18,20.33,20.33,0,0,1,3.32,6.32,49.91,49.91,0,0,1,1.85,7.93q.65,4.31,1,9.09t.82,9.7A78.49,78.49,0,0,1,671,447.86Z" transform="translate(-85 -106.1)"/><path d="M800.23,476.86a38.58,38.58,0,0,1-2.67,14.36A33.17,33.17,0,0,1,789.73,503a37.43,37.43,0,0,1-12.8,7.92,49,49,0,0,1-17.55,2.91,24.24,24.24,0,0,1-6-.82,21.26,21.26,0,0,1-5.87-2.5,15.73,15.73,0,0,1-4.47-4.15,9.49,9.49,0,0,1-1.76-5.66,12.32,12.32,0,0,1,.74-4.1,13.65,13.65,0,0,1,2.09-3.89,11.37,11.37,0,0,1,3.32-2.92,8.68,8.68,0,0,1,4.43-1.15l17.47,16.82a5.94,5.94,0,0,0,2.91-.86,7.66,7.66,0,0,0,2.79-3.36,26.5,26.5,0,0,0,2.1-7.1,71.94,71.94,0,0,0,.82-12.06V423.22a20,20,0,0,0-1-6.24,15.79,15.79,0,0,0-2.95-5.37,14.63,14.63,0,0,0-11.57-5.21,51.09,51.09,0,0,0-6.4.37c-2,.24-3.66.5-5.08.78-1.7.33-3.23.68-4.6,1.06v54.06a3.6,3.6,0,0,0,1.15,2.67,4.49,4.49,0,0,0,2.71,1.27l5,.49V475H714.1V467.1l6-.49a4.13,4.13,0,0,0,2.63-1.27,3.72,3.72,0,0,0,1.07-2.67V406.4H712.21v-6.89L737.56,391h8.77v10.25a65.62,65.62,0,0,1,9.27-5.08,82.91,82.91,0,0,1,9.44-3.53A35.33,35.33,0,0,1,775.7,391a25.57,25.57,0,0,1,12,2.5,20.38,20.38,0,0,1,7.54,6.6,26.11,26.11,0,0,1,3.9,9.35,51.87,51.87,0,0,1,1.11,10.75Z" transform="translate(-85 -106.1)"/></svg>